<svg xmlns="http://www.w3.org/2000/svg" viewBox="0 0 313 124.48"><defs><style>.cls-1{fill:#7a151e;}</style></defs><g id="Layer_2" data-name="Layer 2"><g id="Layer_1-2" data-name="Layer 1"><path class="cls-1" d="M24,124.48H0c-.14-7.54,3.8-13.92,6.11-20.71,6.74-19.88,13.94-39.6,20.94-59.39C31.58,31.59,36,18.76,40.63,6c1.41-3.9,3.94-6,8.61-6Q160.15.18,271.06.09c1.64,0,3.35-.37,5.19,1,4.06,13,8.79,26.11,12.25,39.58,4.91,19.13,11.43,37.74,16.9,56.68,2.6,9,6.35,17.75,7.6,27.16H289c-7.45-24.52-14.3-49.24-22.77-73.54-3.42,1.34-3.28,4-3.87,6.1-4.41,16-9,31.91-13,48-1.61,6.43-4.75,12.58-4.35,19.47H220c-.12-4.56,1.89-8.65,2.95-12.94,2-8.15,4.31-16.23,6.66-25h-193Zm106.31-87c-8.78-1.22-17.71.54-26.43-1,.33-2.75,1.36-4.18,3.88-6.09h28.57c.66-2.59,2.29-4.15,1.35-6.66H90.61c-4.69,12.21-9.22,24-14.08,36.66h48.22c1.5-2.19,3.74-4.17,2.53-8.25H99c-.77-5.32,1.26-7.38,5.67-7.38,6.33,0,12.67-.14,19,0C128.63,45,130.53,42.65,130.31,37.52Zm40.14,11.62C167,54,161.71,55,154.85,52.28L151.75,48c-5.56.56-11.36-1-16.7,1.92.61,2.3,1.14,4.26,1.72,6.44,8.64,6.7,19,5.39,29,4.62,7.7-.59,15.08-2.87,20.5-9,4.41-5,3.19-10-2.9-12.59-5.88-2.51-12.14-3.32-18.38-4.25-2.34-.34-4.46-.74-3-4.19,5.57-1.35,11.07-2.54,15.09,3.78,5-1,10.29.34,15.2-2,.44-5.41-2.94-7.45-6.9-8.56a41,41,0,0,0-10.82-1.78c-9.48,0-19.12.36-27,6.6-6.2,4.9-5.29,9.73,1.85,13.14,2.14,1,4.48,1.31,6.54,2.2C160.59,46.31,166.74,44.25,170.45,49.14Zm37.94-25.26C203.9,36,198.44,47.64,194.57,60.6H240c1.16-2.76,3.59-5,3-9.22H217c2.3-9.92,7.47-18,8.89-27.87C220.05,23.24,214.38,22.85,208.39,23.88Zm-148.3-.72L46.39,59.53c10.83,4.37,17.79,1.44,21-8.2.42-1.26.88-2.5,1.36-3.74,3-7.66,5.94-15.32,9.09-23.46C71.94,22.56,66.66,23.69,60.09,23.16Z"/></g></g></svg>